<svg width="108" height="46" viewBox="0 0 108 46" fill="none" xmlns="http://www.w3.org/2000/svg">
<rect width="108" height="46" rx="23" fill="#665F55"/>
<rect x="8" y="8" width="30" height="30" rx="15" fill="#E1D4C9"/>
<path d="M24.9233 17.3636V29H22.8153V19.4148H22.7472L20.0256 21.1534V19.2216L22.9176 17.3636H24.9233Z" fill="#403F3D"/>
<path d="M53.4716 20.5625C53.4186 20.0663 53.1951 19.6799 52.8011 19.4034C52.411 19.1269 51.9034 18.9886 51.2784 18.9886C50.839 18.9886 50.4621 19.0549 50.1477 19.1875C49.8333 19.3201 49.5928 19.5 49.4261 19.7273C49.2595 19.9545 49.1742 20.214 49.1705 20.5057C49.1705 20.7481 49.2254 20.9583 49.3352 21.1364C49.4489 21.3144 49.6023 21.4659 49.7955 21.5909C49.9886 21.7121 50.2027 21.8144 50.4375 21.8977C50.6723 21.9811 50.9091 22.0511 51.1477 22.108L52.2386 22.3807C52.678 22.483 53.1004 22.6212 53.5057 22.7955C53.9148 22.9697 54.2803 23.1894 54.6023 23.4545C54.928 23.7197 55.1856 24.0398 55.375 24.4148C55.5644 24.7898 55.6591 25.2292 55.6591 25.733C55.6591 26.4148 55.4848 27.0152 55.1364 27.5341C54.7879 28.0492 54.2841 28.4527 53.625 28.7443C52.9697 29.0322 52.1761 29.1761 51.2443 29.1761C50.339 29.1761 49.553 29.036 48.8864 28.7557C48.2235 28.4754 47.7045 28.0663 47.3295 27.5284C46.9583 26.9905 46.7576 26.3352 46.7273 25.5625H48.8011C48.8314 25.9678 48.9564 26.3049 49.1761 26.5739C49.3958 26.8428 49.6818 27.0436 50.0341 27.1761C50.3902 27.3087 50.7879 27.375 51.2273 27.375C51.6856 27.375 52.0871 27.3068 52.4318 27.1705C52.7803 27.0303 53.053 26.8371 53.25 26.5909C53.447 26.3409 53.5473 26.0492 53.5511 25.7159C53.5473 25.4129 53.4583 25.1629 53.2841 24.9659C53.1098 24.7652 52.8655 24.5985 52.5511 24.4659C52.2405 24.3295 51.8769 24.2083 51.4602 24.1023L50.1364 23.7614C49.178 23.5152 48.4205 23.142 47.8636 22.642C47.3106 22.1383 47.0341 21.4697 47.0341 20.6364C47.0341 19.9508 47.2197 19.3504 47.5909 18.8352C47.9659 18.3201 48.4754 17.9205 49.1193 17.6364C49.7633 17.3485 50.4924 17.2045 51.3068 17.2045C52.1326 17.2045 52.8561 17.3485 53.4773 17.6364C54.1023 17.9205 54.5928 18.3163 54.9489 18.8239C55.3049 19.3277 55.4886 19.9072 55.5 20.5625H53.4716ZM63.0099 25.3295V20.2727H65.0668V29H63.0724V27.4489H62.9815C62.7846 27.9375 62.4607 28.3371 62.0099 28.6477C61.563 28.9583 61.0118 29.1136 60.3565 29.1136C59.7846 29.1136 59.2789 28.9867 58.8395 28.733C58.4039 28.4754 58.063 28.1023 57.8168 27.6136C57.5705 27.1212 57.4474 26.5265 57.4474 25.8295V20.2727H59.5043V25.5114C59.5043 26.0644 59.6558 26.5038 59.9588 26.8295C60.2618 27.1553 60.6596 27.3182 61.152 27.3182C61.455 27.3182 61.7486 27.2443 62.0327 27.0966C62.3168 26.9489 62.5497 26.7292 62.7315 26.4375C62.9171 26.142 63.0099 25.7727 63.0099 25.3295ZM70.9773 32.4545C70.2386 32.4545 69.6042 32.3542 69.0739 32.1534C68.5436 31.9564 68.1174 31.6913 67.7955 31.358C67.4735 31.0246 67.25 30.6553 67.125 30.25L68.9773 29.8011C69.0606 29.9716 69.1818 30.1402 69.3409 30.3068C69.5 30.4773 69.714 30.6174 69.983 30.7273C70.2557 30.8409 70.5985 30.8977 71.0114 30.8977C71.5947 30.8977 72.0777 30.7557 72.4602 30.4716C72.8428 30.1913 73.0341 29.7292 73.0341 29.0852V27.4318H72.9318C72.8258 27.6439 72.6705 27.8617 72.4659 28.0852C72.2652 28.3087 71.9981 28.4962 71.6648 28.6477C71.3352 28.7992 70.9205 28.875 70.4205 28.875C69.75 28.875 69.142 28.7178 68.5966 28.4034C68.0549 28.0852 67.6231 27.6117 67.3011 26.983C66.983 26.3504 66.8239 25.5587 66.8239 24.608C66.8239 23.6496 66.983 22.8409 67.3011 22.1818C67.6231 21.5189 68.0568 21.017 68.6023 20.6761C69.1477 20.3314 69.7557 20.1591 70.4261 20.1591C70.9375 20.1591 71.358 20.2462 71.6875 20.4205C72.0208 20.5909 72.286 20.7973 72.483 21.0398C72.6799 21.2784 72.8295 21.5038 72.9318 21.7159H73.0455V20.2727H75.0739V29.142C75.0739 29.8883 74.8958 30.5057 74.5398 30.9943C74.1837 31.483 73.697 31.8485 73.0795 32.0909C72.4621 32.3333 71.7614 32.4545 70.9773 32.4545ZM70.9943 27.2614C71.4299 27.2614 71.8011 27.1553 72.108 26.9432C72.4148 26.7311 72.6477 26.4261 72.8068 26.0284C72.9659 25.6307 73.0455 25.1534 73.0455 24.5966C73.0455 24.0473 72.9659 23.5663 72.8068 23.1534C72.6515 22.7405 72.4205 22.4205 72.1136 22.1932C71.8106 21.9621 71.4375 21.8466 70.9943 21.8466C70.536 21.8466 70.1534 21.9659 69.8466 22.2045C69.5398 22.4432 69.3087 22.7708 69.1534 23.1875C68.9981 23.6004 68.9205 24.0701 68.9205 24.5966C68.9205 25.1307 68.9981 25.5985 69.1534 26C69.3125 26.3977 69.5455 26.7083 69.8523 26.9318C70.1629 27.1515 70.5436 27.2614 70.9943 27.2614ZM79.6932 29.1761C79.1402 29.1761 78.642 29.0777 78.1989 28.8807C77.7595 28.6799 77.411 28.3845 77.1534 27.9943C76.8996 27.6042 76.7727 27.1231 76.7727 26.5511C76.7727 26.0587 76.8636 25.6515 77.0455 25.3295C77.2273 25.0076 77.4754 24.75 77.7898 24.5568C78.1042 24.3636 78.4583 24.2178 78.8523 24.1193C79.25 24.017 79.661 23.9432 80.0852 23.8977C80.5966 23.8447 81.0114 23.7973 81.3295 23.7557C81.6477 23.7102 81.8788 23.642 82.0227 23.5511C82.1705 23.4564 82.2443 23.3106 82.2443 23.1136V23.0795C82.2443 22.6515 82.1174 22.3201 81.8636 22.0852C81.6098 21.8504 81.2443 21.733 80.767 21.733C80.2633 21.733 79.8636 21.8428 79.5682 22.0625C79.2765 22.2822 79.0795 22.5417 78.9773 22.8409L77.0568 22.5682C77.2083 22.0379 77.4583 21.5947 77.8068 21.2386C78.1553 20.8788 78.5814 20.6098 79.0852 20.4318C79.589 20.25 80.1458 20.1591 80.7557 20.1591C81.1761 20.1591 81.5947 20.2083 82.0114 20.3068C82.428 20.4053 82.8087 20.5682 83.1534 20.7955C83.4981 21.0189 83.7746 21.3239 83.983 21.7102C84.1951 22.0966 84.3011 22.5795 84.3011 23.1591V29H82.3239V27.8011H82.2557C82.1307 28.0436 81.9545 28.2708 81.7273 28.483C81.5038 28.6913 81.2216 28.8598 80.8807 28.9886C80.5436 29.1136 80.1477 29.1761 79.6932 29.1761ZM80.2273 27.6648C80.6402 27.6648 80.9981 27.5833 81.3011 27.4205C81.6042 27.2538 81.8371 27.0341 82 26.7614C82.1667 26.4886 82.25 26.1913 82.25 25.8693V24.8409C82.1856 24.8939 82.0758 24.9432 81.9205 24.9886C81.7689 25.0341 81.5985 25.0739 81.4091 25.108C81.2197 25.142 81.0322 25.1723 80.8466 25.1989C80.661 25.2254 80.5 25.2481 80.3636 25.267C80.0568 25.3087 79.7822 25.3769 79.5398 25.4716C79.2973 25.5663 79.1061 25.6989 78.9659 25.8693C78.8258 26.036 78.7557 26.2519 78.7557 26.517C78.7557 26.8958 78.8939 27.1818 79.1705 27.375C79.447 27.5682 79.7992 27.6648 80.2273 27.6648ZM86.3693 29V20.2727H88.3636V21.7273H88.4545C88.6136 21.2235 88.8864 20.8352 89.2727 20.5625C89.6629 20.286 90.108 20.1477 90.608 20.1477C90.7216 20.1477 90.8485 20.1534 90.9886 20.1648C91.1326 20.1723 91.2519 20.1856 91.3466 20.2045V22.0966C91.2595 22.0663 91.1212 22.0398 90.9318 22.017C90.7462 21.9905 90.5663 21.9773 90.392 21.9773C90.017 21.9773 89.6799 22.0587 89.3807 22.2216C89.0852 22.3807 88.8523 22.6023 88.6818 22.8864C88.5114 23.1705 88.4261 23.4981 88.4261 23.8693V29H86.3693Z" fill="#E1D4C9"/>
</svg>
