<svg width="141" height="46" viewBox="0 0 141 46" fill="none" xmlns="http://www.w3.org/2000/svg">
<rect x="0.5" y="0.5" width="140" height="45" rx="22.5" stroke="#C1B6AD"/>
<rect x="8" y="8" width="30" height="30" rx="15" fill="#C1B6AD"/>
<path d="M19.0653 29V27.4773L23.1051 23.517C23.4915 23.1269 23.8134 22.7803 24.071 22.4773C24.3286 22.1742 24.5218 21.8807 24.6506 21.5966C24.7794 21.3125 24.8438 21.0095 24.8438 20.6875C24.8438 20.3201 24.7604 20.0057 24.5938 19.7443C24.4271 19.4792 24.1979 19.2746 23.9062 19.1307C23.6146 18.9867 23.2831 18.9148 22.9119 18.9148C22.5294 18.9148 22.1941 18.9943 21.9062 19.1534C21.6184 19.3087 21.3949 19.5303 21.2358 19.8182C21.0805 20.1061 21.0028 20.4489 21.0028 20.8466H18.9972C18.9972 20.108 19.1657 19.4659 19.5028 18.9205C19.84 18.375 20.304 17.9527 20.8949 17.6534C21.4896 17.3542 22.1714 17.2045 22.9403 17.2045C23.7206 17.2045 24.4063 17.3504 24.9972 17.642C25.5881 17.9337 26.0464 18.3333 26.3722 18.8409C26.7017 19.3485 26.8665 19.928 26.8665 20.5795C26.8665 21.0152 26.7831 21.4432 26.6165 21.8636C26.4498 22.2841 26.1563 22.75 25.7358 23.2614C25.3191 23.7727 24.7339 24.392 23.9801 25.1193L21.9744 27.1591V27.2386H27.0426V29H19.0653Z" fill="#403F3D"/>
<path d="M57.108 21.2898H54.983C54.9223 20.9413 54.8106 20.6326 54.6477 20.3636C54.4848 20.0909 54.2822 19.8598 54.0398 19.6705C53.7973 19.4811 53.5208 19.339 53.2102 19.2443C52.9034 19.1458 52.572 19.0966 52.2159 19.0966C51.5833 19.0966 51.0227 19.2557 50.5341 19.5739C50.0455 19.8883 49.6629 20.3504 49.3864 20.9602C49.1098 21.5663 48.9716 22.3068 48.9716 23.1818C48.9716 24.072 49.1098 24.822 49.3864 25.4318C49.6667 26.0379 50.0492 26.4962 50.5341 26.8068C51.0227 27.1136 51.5814 27.267 52.2102 27.267C52.5587 27.267 52.8845 27.2216 53.1875 27.1307C53.4943 27.036 53.7689 26.8977 54.0114 26.7159C54.2576 26.5341 54.464 26.3106 54.6307 26.0455C54.8011 25.7803 54.9186 25.4773 54.983 25.1364L57.108 25.1477C57.0284 25.7008 56.8561 26.2197 56.5909 26.7045C56.3295 27.1894 55.9867 27.6174 55.5625 27.9886C55.1383 28.3561 54.642 28.6439 54.0739 28.8523C53.5057 29.0568 52.875 29.1591 52.1818 29.1591C51.1591 29.1591 50.2462 28.9223 49.4432 28.4489C48.6402 27.9754 48.0076 27.2917 47.5455 26.3977C47.0833 25.5038 46.8523 24.4318 46.8523 23.1818C46.8523 21.928 47.0852 20.8561 47.5511 19.9659C48.017 19.072 48.6515 18.3883 49.4545 17.9148C50.2576 17.4413 51.1667 17.2045 52.1818 17.2045C52.8295 17.2045 53.4318 17.2955 53.9886 17.4773C54.5455 17.6591 55.0417 17.9261 55.4773 18.2784C55.9129 18.6269 56.2708 19.0549 56.5511 19.5625C56.8352 20.0663 57.0208 20.642 57.108 21.2898ZM58.9474 29V20.2727H61.0043V29H58.9474ZM59.9815 19.0341C59.6558 19.0341 59.3755 18.9261 59.1406 18.7102C58.9058 18.4905 58.7884 18.2273 58.7884 17.9205C58.7884 17.6098 58.9058 17.3466 59.1406 17.1307C59.3755 16.911 59.6558 16.8011 59.9815 16.8011C60.3111 16.8011 60.5914 16.911 60.8224 17.1307C61.0573 17.3466 61.1747 17.6098 61.1747 17.9205C61.1747 18.2273 61.0573 18.4905 60.8224 18.7102C60.5914 18.9261 60.3111 19.0341 59.9815 19.0341ZM65.1761 23.8864V29H63.1193V20.2727H65.0852V21.7557H65.1875C65.3883 21.267 65.7083 20.8788 66.1477 20.5909C66.5909 20.303 67.1383 20.1591 67.7898 20.1591C68.392 20.1591 68.9167 20.2879 69.3636 20.5455C69.8144 20.803 70.1629 21.1761 70.4091 21.6648C70.6591 22.1534 70.7822 22.7462 70.7784 23.4432V29H68.7216V23.7614C68.7216 23.178 68.5701 22.7216 68.267 22.392C67.9678 22.0625 67.553 21.8977 67.0227 21.8977C66.6629 21.8977 66.3428 21.9773 66.0625 22.1364C65.786 22.2917 65.5682 22.517 65.4091 22.8125C65.2538 23.108 65.1761 23.4659 65.1761 23.8864ZM74.9261 23.8864V29H72.8693V20.2727H74.8352V21.7557H74.9375C75.1383 21.267 75.4583 20.8788 75.8977 20.5909C76.3409 20.303 76.8883 20.1591 77.5398 20.1591C78.142 20.1591 78.6667 20.2879 79.1136 20.5455C79.5644 20.803 79.9129 21.1761 80.1591 21.6648C80.4091 22.1534 80.5322 22.7462 80.5284 23.4432V29H78.4716V23.7614C78.4716 23.178 78.3201 22.7216 78.017 22.392C77.7178 22.0625 77.303 21.8977 76.7727 21.8977C76.4129 21.8977 76.0928 21.9773 75.8125 22.1364C75.536 22.2917 75.3182 22.517 75.1591 22.8125C75.0038 23.108 74.9261 23.4659 74.9261 23.8864ZM85.1307 29.1761C84.5777 29.1761 84.0795 29.0777 83.6364 28.8807C83.197 28.6799 82.8485 28.3845 82.5909 27.9943C82.3371 27.6042 82.2102 27.1231 82.2102 26.5511C82.2102 26.0587 82.3011 25.6515 82.483 25.3295C82.6648 25.0076 82.9129 24.75 83.2273 24.5568C83.5417 24.3636 83.8958 24.2178 84.2898 24.1193C84.6875 24.017 85.0985 23.9432 85.5227 23.8977C86.0341 23.8447 86.4489 23.7973 86.767 23.7557C87.0852 23.7102 87.3163 23.642 87.4602 23.5511C87.608 23.4564 87.6818 23.3106 87.6818 23.1136V23.0795C87.6818 22.6515 87.5549 22.3201 87.3011 22.0852C87.0473 21.8504 86.6818 21.733 86.2045 21.733C85.7008 21.733 85.3011 21.8428 85.0057 22.0625C84.714 22.2822 84.517 22.5417 84.4148 22.8409L82.4943 22.5682C82.6458 22.0379 82.8958 21.5947 83.2443 21.2386C83.5928 20.8788 84.0189 20.6098 84.5227 20.4318C85.0265 20.25 85.5833 20.1591 86.1932 20.1591C86.6136 20.1591 87.0322 20.2083 87.4489 20.3068C87.8655 20.4053 88.2462 20.5682 88.5909 20.7955C88.9356 21.0189 89.2121 21.3239 89.4205 21.7102C89.6326 22.0966 89.7386 22.5795 89.7386 23.1591V29H87.7614V27.8011H87.6932C87.5682 28.0436 87.392 28.2708 87.1648 28.483C86.9413 28.6913 86.6591 28.8598 86.3182 28.9886C85.9811 29.1136 85.5852 29.1761 85.1307 29.1761ZM85.6648 27.6648C86.0777 27.6648 86.4356 27.5833 86.7386 27.4205C87.0417 27.2538 87.2746 27.0341 87.4375 26.7614C87.6042 26.4886 87.6875 26.1913 87.6875 25.8693V24.8409C87.6231 24.8939 87.5133 24.9432 87.358 24.9886C87.2064 25.0341 87.036 25.0739 86.8466 25.108C86.6572 25.142 86.4697 25.1723 86.2841 25.1989C86.0985 25.2254 85.9375 25.2481 85.8011 25.267C85.4943 25.3087 85.2197 25.3769 84.9773 25.4716C84.7348 25.5663 84.5436 25.6989 84.4034 25.8693C84.2633 26.036 84.1932 26.2519 84.1932 26.517C84.1932 26.8958 84.3314 27.1818 84.608 27.375C84.8845 27.5682 85.2367 27.6648 85.6648 27.6648ZM91.8068 29V20.2727H93.7727V21.7557H93.875C94.0568 21.2557 94.358 20.8655 94.7784 20.5852C95.1989 20.3011 95.7008 20.1591 96.2841 20.1591C96.875 20.1591 97.3731 20.303 97.7784 20.5909C98.1875 20.875 98.4754 21.2633 98.642 21.7557H98.733C98.9261 21.2708 99.2519 20.8845 99.7102 20.5966C100.172 20.3049 100.72 20.1591 101.352 20.1591C102.155 20.1591 102.811 20.4129 103.318 20.9205C103.826 21.428 104.08 22.1686 104.08 23.142V29H102.017V23.4602C102.017 22.9186 101.873 22.5227 101.585 22.2727C101.297 22.0189 100.945 21.892 100.528 21.892C100.032 21.892 99.6439 22.0473 99.3636 22.358C99.0871 22.6648 98.9489 23.0644 98.9489 23.5568V29H96.9318V23.375C96.9318 22.9242 96.7955 22.5644 96.5227 22.2955C96.2538 22.0265 95.9015 21.892 95.4659 21.892C95.1705 21.892 94.9015 21.9678 94.6591 22.1193C94.4167 22.267 94.2235 22.4773 94.0795 22.75C93.9356 23.0189 93.8636 23.3333 93.8636 23.6932V29H91.8068ZM109.973 29.1705C109.121 29.1705 108.382 28.983 107.757 28.608C107.132 28.233 106.647 27.7083 106.303 27.0341C105.962 26.3598 105.791 25.572 105.791 24.6705C105.791 23.7689 105.962 22.9792 106.303 22.3011C106.647 21.6231 107.132 21.0966 107.757 20.7216C108.382 20.3466 109.121 20.1591 109.973 20.1591C110.825 20.1591 111.564 20.3466 112.189 20.7216C112.814 21.0966 113.297 21.6231 113.638 22.3011C113.982 22.9792 114.155 23.7689 114.155 24.6705C114.155 25.572 113.982 26.3598 113.638 27.0341C113.297 27.7083 112.814 28.233 112.189 28.608C111.564 28.983 110.825 29.1705 109.973 29.1705ZM109.984 27.5227C110.446 27.5227 110.833 27.3958 111.143 27.142C111.454 26.8845 111.685 26.5398 111.837 26.108C111.992 25.6761 112.07 25.1951 112.07 24.6648C112.07 24.1307 111.992 23.6477 111.837 23.2159C111.685 22.7803 111.454 22.4337 111.143 22.1761C110.833 21.9186 110.446 21.7898 109.984 21.7898C109.511 21.7898 109.117 21.9186 108.803 22.1761C108.492 22.4337 108.259 22.7803 108.104 23.2159C107.952 23.6477 107.876 24.1307 107.876 24.6648C107.876 25.1951 107.952 25.6761 108.104 26.108C108.259 26.5398 108.492 26.8845 108.803 27.142C109.117 27.3958 109.511 27.5227 109.984 27.5227ZM117.957 23.8864V29H115.901V20.2727H117.866V21.7557H117.969C118.17 21.267 118.49 20.8788 118.929 20.5909C119.372 20.303 119.92 20.1591 120.571 20.1591C121.173 20.1591 121.698 20.2879 122.145 20.5455C122.596 20.803 122.944 21.1761 123.19 21.6648C123.44 22.1534 123.563 22.7462 123.56 23.4432V29H121.503V23.7614C121.503 23.178 121.351 22.7216 121.048 22.392C120.749 22.0625 120.334 21.8977 119.804 21.8977C119.444 21.8977 119.124 21.9773 118.844 22.1364C118.567 22.2917 118.349 22.517 118.19 22.8125C118.035 23.108 117.957 23.4659 117.957 23.8864Z" fill="#403F3D"/>
</svg>
