<svg width="108" height="46" viewBox="0 0 108 46" fill="none" xmlns="http://www.w3.org/2000/svg">
<rect x="0.5" y="0.5" width="107" height="45" rx="22.5" stroke="#C1B6AD"/>
<rect x="8" y="8" width="30" height="30" rx="15" fill="#C1B6AD"/>
<path d="M23.4993 29.1591C22.6811 29.1591 21.9538 29.0189 21.3175 28.7386C20.6849 28.4583 20.1849 28.0682 19.8175 27.5682C19.45 27.0682 19.255 26.4905 19.2322 25.8352H21.3686C21.3875 26.1496 21.4917 26.4242 21.6811 26.6591C21.8705 26.8902 22.1224 27.0701 22.4368 27.1989C22.7512 27.3277 23.1035 27.392 23.4936 27.392C23.9103 27.392 24.2796 27.3201 24.6016 27.1761C24.9235 27.0284 25.1754 26.8239 25.3572 26.5625C25.5391 26.3011 25.6281 26 25.6243 25.6591C25.6281 25.3068 25.5372 24.9962 25.3516 24.7273C25.166 24.4583 24.897 24.2481 24.5447 24.0966C24.1963 23.9451 23.7758 23.8693 23.2834 23.8693H22.255V22.2443H23.2834C23.6887 22.2443 24.0429 22.1742 24.3459 22.0341C24.6527 21.8939 24.8932 21.697 25.0675 21.4432C25.2417 21.1856 25.3269 20.8883 25.3232 20.5511C25.3269 20.2216 25.2531 19.9356 25.1016 19.6932C24.9538 19.447 24.7436 19.2557 24.4709 19.1193C24.2019 18.983 23.8857 18.9148 23.522 18.9148C23.166 18.9148 22.8364 18.9792 22.5334 19.108C22.2304 19.2367 21.986 19.4205 21.8004 19.6591C21.6148 19.8939 21.5163 20.1742 21.505 20.5H19.4766C19.4917 19.8485 19.6792 19.2765 20.0391 18.7841C20.4027 18.2879 20.8875 17.9015 21.4936 17.625C22.0997 17.3447 22.7796 17.2045 23.5334 17.2045C24.3099 17.2045 24.9841 17.3504 25.5561 17.642C26.1319 17.9299 26.5769 18.3182 26.8913 18.8068C27.2057 19.2955 27.3629 19.8352 27.3629 20.4261C27.3667 21.0814 27.1735 21.6307 26.7834 22.0739C26.397 22.517 25.8894 22.8068 25.2607 22.9432V23.0341C26.0788 23.1477 26.7057 23.4508 27.1413 23.9432C27.5807 24.4318 27.7985 25.0398 27.7947 25.767C27.7947 26.4186 27.6091 27.0019 27.2379 27.517C26.8705 28.0284 26.3629 28.4299 25.7152 28.7216C25.0713 29.0133 24.3326 29.1591 23.4993 29.1591Z" fill="#403F3D"/>
<path d="M53.4716 20.5625C53.4186 20.0663 53.1951 19.6799 52.8011 19.4034C52.411 19.1269 51.9034 18.9886 51.2784 18.9886C50.839 18.9886 50.4621 19.0549 50.1477 19.1875C49.8333 19.3201 49.5928 19.5 49.4261 19.7273C49.2595 19.9545 49.1742 20.214 49.1705 20.5057C49.1705 20.7481 49.2254 20.9583 49.3352 21.1364C49.4489 21.3144 49.6023 21.4659 49.7955 21.5909C49.9886 21.7121 50.2027 21.8144 50.4375 21.8977C50.6723 21.9811 50.9091 22.0511 51.1477 22.108L52.2386 22.3807C52.678 22.483 53.1004 22.6212 53.5057 22.7955C53.9148 22.9697 54.2803 23.1894 54.6023 23.4545C54.928 23.7197 55.1856 24.0398 55.375 24.4148C55.5644 24.7898 55.6591 25.2292 55.6591 25.733C55.6591 26.4148 55.4848 27.0152 55.1364 27.5341C54.7879 28.0492 54.2841 28.4527 53.625 28.7443C52.9697 29.0322 52.1761 29.1761 51.2443 29.1761C50.339 29.1761 49.553 29.036 48.8864 28.7557C48.2235 28.4754 47.7045 28.0663 47.3295 27.5284C46.9583 26.9905 46.7576 26.3352 46.7273 25.5625H48.8011C48.8314 25.9678 48.9564 26.3049 49.1761 26.5739C49.3958 26.8428 49.6818 27.0436 50.0341 27.1761C50.3902 27.3087 50.7879 27.375 51.2273 27.375C51.6856 27.375 52.0871 27.3068 52.4318 27.1705C52.7803 27.0303 53.053 26.8371 53.25 26.5909C53.447 26.3409 53.5473 26.0492 53.5511 25.7159C53.5473 25.4129 53.4583 25.1629 53.2841 24.9659C53.1098 24.7652 52.8655 24.5985 52.5511 24.4659C52.2405 24.3295 51.8769 24.2083 51.4602 24.1023L50.1364 23.7614C49.178 23.5152 48.4205 23.142 47.8636 22.642C47.3106 22.1383 47.0341 21.4697 47.0341 20.6364C47.0341 19.9508 47.2197 19.3504 47.5909 18.8352C47.9659 18.3201 48.4754 17.9205 49.1193 17.6364C49.7633 17.3485 50.4924 17.2045 51.3068 17.2045C52.1326 17.2045 52.8561 17.3485 53.4773 17.6364C54.1023 17.9205 54.5928 18.3163 54.9489 18.8239C55.3049 19.3277 55.4886 19.9072 55.5 20.5625H53.4716ZM58.7259 32.2727C58.4455 32.2727 58.1861 32.25 57.9474 32.2045C57.7126 32.1629 57.5251 32.1136 57.3849 32.0568L57.8622 30.4545C58.1615 30.5417 58.4285 30.5833 58.6634 30.5795C58.8982 30.5758 59.1046 30.5019 59.2827 30.358C59.4645 30.2178 59.6179 29.983 59.7429 29.6534L59.919 29.1818L56.7543 20.2727H58.9361L60.9474 26.8636H61.0384L63.0554 20.2727H65.2429L61.7486 30.0568C61.5857 30.5189 61.3698 30.9148 61.1009 31.2443C60.8319 31.5777 60.5024 31.8314 60.1122 32.0057C59.7259 32.1837 59.2637 32.2727 58.7259 32.2727ZM66.6662 29V20.2727H68.6605V21.7273H68.7514C68.9105 21.2235 69.1832 20.8352 69.5696 20.5625C69.9598 20.286 70.4048 20.1477 70.9048 20.1477C71.0185 20.1477 71.1454 20.1534 71.2855 20.1648C71.4295 20.1723 71.5488 20.1856 71.6435 20.2045V22.0966C71.5563 22.0663 71.4181 22.0398 71.2287 22.017C71.0431 21.9905 70.8632 21.9773 70.6889 21.9773C70.3139 21.9773 69.9768 22.0587 69.6776 22.2216C69.3821 22.3807 69.1491 22.6023 68.9787 22.8864C68.8082 23.1705 68.723 23.4981 68.723 23.8693V29H66.6662ZM78.5724 25.3295V20.2727H80.6293V29H78.6349V27.4489H78.544C78.3471 27.9375 78.0232 28.3371 77.5724 28.6477C77.1255 28.9583 76.5743 29.1136 75.919 29.1136C75.3471 29.1136 74.8414 28.9867 74.402 28.733C73.9664 28.4754 73.6255 28.1023 73.3793 27.6136C73.133 27.1212 73.0099 26.5265 73.0099 25.8295V20.2727H75.0668V25.5114C75.0668 26.0644 75.2183 26.5038 75.5213 26.8295C75.8243 27.1553 76.2221 27.3182 76.7145 27.3182C77.0175 27.3182 77.3111 27.2443 77.5952 27.0966C77.8793 26.9489 78.1122 26.7292 78.294 26.4375C78.4796 26.142 78.5724 25.7727 78.5724 25.3295ZM82.7443 32.2727V20.2727H84.767V21.7159H84.8864C84.9924 21.5038 85.142 21.2784 85.3352 21.0398C85.5284 20.7973 85.7898 20.5909 86.1193 20.4205C86.4489 20.2462 86.8693 20.1591 87.3807 20.1591C88.0549 20.1591 88.6629 20.3314 89.2045 20.6761C89.75 21.017 90.1818 21.5227 90.5 22.1932C90.822 22.8598 90.983 23.678 90.983 24.6477C90.983 25.6061 90.8258 26.4205 90.5114 27.0909C90.197 27.7614 89.7689 28.2727 89.2273 28.625C88.6856 28.9773 88.072 29.1534 87.3864 29.1534C86.8864 29.1534 86.4716 29.0701 86.142 28.9034C85.8125 28.7367 85.5473 28.536 85.3466 28.3011C85.1496 28.0625 84.9962 27.8371 84.8864 27.625H84.8011V32.2727H82.7443ZM84.7614 24.6364C84.7614 25.2008 84.8409 25.6951 85 26.1193C85.1629 26.5436 85.3958 26.875 85.6989 27.1136C86.0057 27.3485 86.3769 27.4659 86.8125 27.4659C87.267 27.4659 87.6477 27.3447 87.9545 27.1023C88.2614 26.8561 88.4924 26.5208 88.6477 26.0966C88.8068 25.6686 88.8864 25.1818 88.8864 24.6364C88.8864 24.0947 88.8087 23.6136 88.6534 23.1932C88.4981 22.7727 88.267 22.4432 87.9602 22.2045C87.6534 21.9659 87.2708 21.8466 86.8125 21.8466C86.3731 21.8466 86 21.9621 85.6932 22.1932C85.3864 22.4242 85.1534 22.7481 84.9943 23.1648C84.839 23.5814 84.7614 24.072 84.7614 24.6364Z" fill="#403F3D"/>
</svg>
