<svg width="117" height="46" viewBox="0 0 117 46" fill="none" xmlns="http://www.w3.org/2000/svg">
<rect width="117" height="46" rx="23" fill="#665F55"/>
<rect x="8" y="8" width="30" height="30" rx="15" fill="#E1D4C9"/>
<path d="M19.6165 29V17.3636H21.7244V27.233H26.8494V29H19.6165Z" fill="#403F3D"/>
<path d="M46.8239 26.8409V25.1648L51.7614 17.3636H53.1591V19.75H52.3068L48.983 25.017V25.108H55.875V26.8409H46.8239ZM52.375 29V26.3295L52.3977 25.5795V17.3636H54.3864V29H52.375ZM61.9915 29.2216C61.0559 29.2216 60.2528 28.9848 59.5824 28.5114C58.9157 28.0341 58.4025 27.3466 58.0426 26.4489C57.6866 25.5473 57.5085 24.4621 57.5085 23.1932C57.5123 21.9242 57.6922 20.8447 58.0483 19.9545C58.4081 19.0606 58.9214 18.3788 59.5881 17.9091C60.2585 17.4394 61.0597 17.2045 61.9915 17.2045C62.9233 17.2045 63.7244 17.4394 64.3949 17.9091C65.0653 18.3788 65.5786 19.0606 65.9347 19.9545C66.2945 20.8485 66.4744 21.928 66.4744 23.1932C66.4744 24.4659 66.2945 25.553 65.9347 26.4545C65.5786 27.3523 65.0653 28.0379 64.3949 28.5114C63.7282 28.9848 62.9271 29.2216 61.9915 29.2216ZM61.9915 27.4432C62.7188 27.4432 63.2926 27.0852 63.7131 26.3693C64.1373 25.6496 64.3494 24.5909 64.3494 23.1932C64.3494 22.2689 64.2528 21.4924 64.0597 20.8636C63.8665 20.2348 63.5938 19.7614 63.2415 19.4432C62.8892 19.1212 62.4725 18.9602 61.9915 18.9602C61.268 18.9602 60.696 19.3201 60.2756 20.0398C59.8551 20.7557 59.643 21.8068 59.6392 23.1932C59.6354 24.1212 59.7282 24.9015 59.9176 25.5341C60.1108 26.1667 60.3835 26.6439 60.7358 26.9659C61.0881 27.2841 61.5066 27.4432 61.9915 27.4432ZM72.6634 29.2216C71.7277 29.2216 70.9247 28.9848 70.2543 28.5114C69.5876 28.0341 69.0743 27.3466 68.7145 26.4489C68.3584 25.5473 68.1804 24.4621 68.1804 23.1932C68.1842 21.9242 68.3641 20.8447 68.7202 19.9545C69.08 19.0606 69.5933 18.3788 70.2599 17.9091C70.9304 17.4394 71.7315 17.2045 72.6634 17.2045C73.5952 17.2045 74.3963 17.4394 75.0668 17.9091C75.7372 18.3788 76.2505 19.0606 76.6065 19.9545C76.9664 20.8485 77.1463 21.928 77.1463 23.1932C77.1463 24.4659 76.9664 25.553 76.6065 26.4545C76.2505 27.3523 75.7372 28.0379 75.0668 28.5114C74.4001 28.9848 73.599 29.2216 72.6634 29.2216ZM72.6634 27.4432C73.3906 27.4432 73.9645 27.0852 74.3849 26.3693C74.8092 25.6496 75.0213 24.5909 75.0213 23.1932C75.0213 22.2689 74.9247 21.4924 74.7315 20.8636C74.5384 20.2348 74.2656 19.7614 73.9134 19.4432C73.5611 19.1212 73.1444 18.9602 72.6634 18.9602C71.9399 18.9602 71.3679 19.3201 70.9474 20.0398C70.527 20.7557 70.3149 21.8068 70.3111 23.1932C70.3073 24.1212 70.4001 24.9015 70.5895 25.5341C70.7827 26.1667 71.0554 26.6439 71.4077 26.9659C71.7599 27.2841 72.1785 27.4432 72.6634 27.4432ZM83.0256 29V20.2727H84.9915V21.7557H85.0938C85.2756 21.2557 85.5767 20.8655 85.9972 20.5852C86.4176 20.3011 86.9195 20.1591 87.5028 20.1591C88.0938 20.1591 88.5919 20.303 88.9972 20.5909C89.4063 20.875 89.6941 21.2633 89.8608 21.7557H89.9517C90.1449 21.2708 90.4706 20.8845 90.929 20.5966C91.3911 20.3049 91.9384 20.1591 92.571 20.1591C93.3741 20.1591 94.0294 20.4129 94.5369 20.9205C95.0445 21.428 95.2983 22.1686 95.2983 23.142V29H93.2358V23.4602C93.2358 22.9186 93.0919 22.5227 92.804 22.2727C92.5161 22.0189 92.1638 21.892 91.7472 21.892C91.2509 21.892 90.8627 22.0473 90.5824 22.358C90.3059 22.6648 90.1676 23.0644 90.1676 23.5568V29H88.1506V23.375C88.1506 22.9242 88.0142 22.5644 87.7415 22.2955C87.4725 22.0265 87.1203 21.892 86.6847 21.892C86.3892 21.892 86.1203 21.9678 85.8778 22.1193C85.6354 22.267 85.4422 22.4773 85.2983 22.75C85.1544 23.0189 85.0824 23.3333 85.0824 23.6932V29H83.0256ZM99.4418 17.3636V29H97.3849V17.3636H99.4418Z" fill="#E1D4C9"/>
</svg>
