<svg width="117" height="46" viewBox="0 0 117 46" fill="none" xmlns="http://www.w3.org/2000/svg">
<rect x="0.5" y="0.5" width="116" height="45" rx="22.5" stroke="#C1B6AD"/>
<rect x="8" y="8" width="30" height="30" rx="15" fill="#C1B6AD"/>
<path d="M17.3977 17.3636H19.9773L23.4318 25.7955H23.5682L27.0227 17.3636H29.6023V29H27.5795V21.0057H27.4716L24.2557 28.9659H22.7443L19.5284 20.9886H19.4205V29H17.3977V17.3636Z" fill="#403F3D"/>
<path d="M51.2102 29.1591C50.392 29.1591 49.6648 29.0189 49.0284 28.7386C48.3958 28.4583 47.8958 28.0682 47.5284 27.5682C47.161 27.0682 46.9659 26.4905 46.9432 25.8352H49.0795C49.0985 26.1496 49.2027 26.4242 49.392 26.6591C49.5814 26.8902 49.8333 27.0701 50.1477 27.1989C50.4621 27.3277 50.8144 27.392 51.2045 27.392C51.6212 27.392 51.9905 27.3201 52.3125 27.1761C52.6345 27.0284 52.8864 26.8239 53.0682 26.5625C53.25 26.3011 53.339 26 53.3352 25.6591C53.339 25.3068 53.2481 24.9962 53.0625 24.7273C52.8769 24.4583 52.608 24.2481 52.2557 24.0966C51.9072 23.9451 51.4867 23.8693 50.9943 23.8693H49.9659V22.2443H50.9943C51.3996 22.2443 51.7538 22.1742 52.0568 22.0341C52.3636 21.8939 52.6042 21.697 52.7784 21.4432C52.9527 21.1856 53.0379 20.8883 53.0341 20.5511C53.0379 20.2216 52.964 19.9356 52.8125 19.6932C52.6648 19.447 52.4545 19.2557 52.1818 19.1193C51.9129 18.983 51.5966 18.9148 51.233 18.9148C50.8769 18.9148 50.5473 18.9792 50.2443 19.108C49.9413 19.2367 49.697 19.4205 49.5114 19.6591C49.3258 19.8939 49.2273 20.1742 49.2159 20.5H47.1875C47.2027 19.8485 47.3902 19.2765 47.75 18.7841C48.1136 18.2879 48.5985 17.9015 49.2045 17.625C49.8106 17.3447 50.4905 17.2045 51.2443 17.2045C52.0208 17.2045 52.6951 17.3504 53.267 17.642C53.8428 17.9299 54.2879 18.3182 54.6023 18.8068C54.9167 19.2955 55.0739 19.8352 55.0739 20.4261C55.0777 21.0814 54.8845 21.6307 54.4943 22.0739C54.108 22.517 53.6004 22.8068 52.9716 22.9432V23.0341C53.7898 23.1477 54.4167 23.4508 54.8523 23.9432C55.2917 24.4318 55.5095 25.0398 55.5057 25.767C55.5057 26.4186 55.3201 27.0019 54.9489 27.517C54.5814 28.0284 54.0739 28.4299 53.4261 28.7216C52.7822 29.0133 52.0436 29.1591 51.2102 29.1591ZM61.7571 29.2216C60.8215 29.2216 60.0185 28.9848 59.348 28.5114C58.6813 28.0341 58.1681 27.3466 57.8082 26.4489C57.4522 25.5473 57.2741 24.4621 57.2741 23.1932C57.2779 21.9242 57.4579 20.8447 57.8139 19.9545C58.1738 19.0606 58.687 18.3788 59.3537 17.9091C60.0241 17.4394 60.8253 17.2045 61.7571 17.2045C62.6889 17.2045 63.4901 17.4394 64.1605 17.9091C64.831 18.3788 65.3442 19.0606 65.7003 19.9545C66.0601 20.8485 66.2401 21.928 66.2401 23.1932C66.2401 24.4659 66.0601 25.553 65.7003 26.4545C65.3442 27.3523 64.831 28.0379 64.1605 28.5114C63.4938 28.9848 62.6927 29.2216 61.7571 29.2216ZM61.7571 27.4432C62.4844 27.4432 63.0582 27.0852 63.4787 26.3693C63.9029 25.6496 64.1151 24.5909 64.1151 23.1932C64.1151 22.2689 64.0185 21.4924 63.8253 20.8636C63.6321 20.2348 63.3594 19.7614 63.0071 19.4432C62.6548 19.1212 62.2382 18.9602 61.7571 18.9602C61.0336 18.9602 60.4616 19.3201 60.0412 20.0398C59.6207 20.7557 59.4086 21.8068 59.4048 23.1932C59.401 24.1212 59.4938 24.9015 59.6832 25.5341C59.8764 26.1667 60.1491 26.6439 60.5014 26.9659C60.8537 27.2841 61.2723 27.4432 61.7571 27.4432ZM72.429 29.2216C71.4934 29.2216 70.6903 28.9848 70.0199 28.5114C69.3532 28.0341 68.84 27.3466 68.4801 26.4489C68.1241 25.5473 67.946 24.4621 67.946 23.1932C67.9498 21.9242 68.1297 20.8447 68.4858 19.9545C68.8456 19.0606 69.3589 18.3788 70.0256 17.9091C70.696 17.4394 71.4972 17.2045 72.429 17.2045C73.3608 17.2045 74.1619 17.4394 74.8324 17.9091C75.5028 18.3788 76.0161 19.0606 76.3722 19.9545C76.732 20.8485 76.9119 21.928 76.9119 23.1932C76.9119 24.4659 76.732 25.553 76.3722 26.4545C76.0161 27.3523 75.5028 28.0379 74.8324 28.5114C74.1657 28.9848 73.3646 29.2216 72.429 29.2216ZM72.429 27.4432C73.1563 27.4432 73.7301 27.0852 74.1506 26.3693C74.5748 25.6496 74.7869 24.5909 74.7869 23.1932C74.7869 22.2689 74.6903 21.4924 74.4972 20.8636C74.304 20.2348 74.0313 19.7614 73.679 19.4432C73.3267 19.1212 72.91 18.9602 72.429 18.9602C71.7055 18.9602 71.1335 19.3201 70.7131 20.0398C70.2926 20.7557 70.0805 21.8068 70.0767 23.1932C70.0729 24.1212 70.1657 24.9015 70.3551 25.5341C70.5483 26.1667 70.821 26.6439 71.1733 26.9659C71.5256 27.2841 71.9441 27.4432 72.429 27.4432ZM82.7912 29V20.2727H84.7571V21.7557H84.8594C85.0412 21.2557 85.3423 20.8655 85.7628 20.5852C86.1832 20.3011 86.6851 20.1591 87.2685 20.1591C87.8594 20.1591 88.3575 20.303 88.7628 20.5909C89.1719 20.875 89.4598 21.2633 89.6264 21.7557H89.7173C89.9105 21.2708 90.2363 20.8845 90.6946 20.5966C91.1567 20.3049 91.7041 20.1591 92.3366 20.1591C93.1397 20.1591 93.795 20.4129 94.3026 20.9205C94.8101 21.428 95.0639 22.1686 95.0639 23.142V29H93.0014V23.4602C93.0014 22.9186 92.8575 22.5227 92.5696 22.2727C92.2817 22.0189 91.9295 21.892 91.5128 21.892C91.0166 21.892 90.6283 22.0473 90.348 22.358C90.0715 22.6648 89.9332 23.0644 89.9332 23.5568V29H87.9162V23.375C87.9162 22.9242 87.7798 22.5644 87.5071 22.2955C87.2382 22.0265 86.8859 21.892 86.4503 21.892C86.1548 21.892 85.8859 21.9678 85.6435 22.1193C85.401 22.267 85.2079 22.4773 85.0639 22.75C84.92 23.0189 84.848 23.3333 84.848 23.6932V29H82.7912ZM99.2074 17.3636V29H97.1506V17.3636H99.2074Z" fill="#403F3D"/>
</svg>
