<svg width="116" height="46" viewBox="0 0 116 46" fill="none" xmlns="http://www.w3.org/2000/svg">
<rect x="0.5" y="0.5" width="115" height="45" rx="22.5" stroke="#C1B6AD"/>
<rect x="8" y="8" width="30" height="30" rx="15" fill="#C1B6AD"/>
<path d="M25.7763 20.5625C25.7232 20.0663 25.4998 19.6799 25.1058 19.4034C24.7157 19.1269 24.2081 18.9886 23.5831 18.9886C23.1437 18.9886 22.7668 19.0549 22.4524 19.1875C22.138 19.3201 21.8975 19.5 21.7308 19.7273C21.5642 19.9545 21.4789 20.214 21.4751 20.5057C21.4751 20.7481 21.5301 20.9583 21.6399 21.1364C21.7536 21.3144 21.907 21.4659 22.1001 21.5909C22.2933 21.7121 22.5073 21.8144 22.7422 21.8977C22.977 21.9811 23.2138 22.0511 23.4524 22.108L24.5433 22.3807C24.9827 22.483 25.4051 22.6212 25.8104 22.7955C26.2195 22.9697 26.585 23.1894 26.907 23.4545C27.2327 23.7197 27.4903 24.0398 27.6797 24.4148C27.8691 24.7898 27.9638 25.2292 27.9638 25.733C27.9638 26.4148 27.7895 27.0152 27.4411 27.5341C27.0926 28.0492 26.5888 28.4527 25.9297 28.7443C25.2744 29.0322 24.4808 29.1761 23.549 29.1761C22.6437 29.1761 21.8577 29.036 21.1911 28.7557C20.5282 28.4754 20.0092 28.0663 19.6342 27.5284C19.263 26.9905 19.0623 26.3352 19.032 25.5625H21.1058C21.1361 25.9678 21.2611 26.3049 21.4808 26.5739C21.7005 26.8428 21.9865 27.0436 22.3388 27.1761C22.6948 27.3087 23.0926 27.375 23.532 27.375C23.9903 27.375 24.3918 27.3068 24.7365 27.1705C25.085 27.0303 25.3577 26.8371 25.5547 26.5909C25.7517 26.3409 25.852 26.0492 25.8558 25.7159C25.852 25.4129 25.763 25.1629 25.5888 24.9659C25.4145 24.7652 25.1702 24.5985 24.8558 24.4659C24.5452 24.3295 24.1816 24.2083 23.7649 24.1023L22.4411 23.7614C21.4827 23.5152 20.7251 23.142 20.1683 22.642C19.6153 22.1383 19.3388 21.4697 19.3388 20.6364C19.3388 19.9508 19.5244 19.3504 19.8956 18.8352C20.2706 18.3201 20.7801 17.9205 21.424 17.6364C22.0679 17.3485 22.7971 17.2045 23.6115 17.2045C24.4373 17.2045 25.1607 17.3485 25.782 17.6364C26.407 17.9205 26.8975 18.3163 27.2536 18.8239C27.6096 19.3277 27.7933 19.9072 27.8047 20.5625H25.7763Z" fill="#403F3D"/>
<path d="M47.0341 29V27.4773L51.0739 23.517C51.4602 23.1269 51.7822 22.7803 52.0398 22.4773C52.2973 22.1742 52.4905 21.8807 52.6193 21.5966C52.7481 21.3125 52.8125 21.0095 52.8125 20.6875C52.8125 20.3201 52.7292 20.0057 52.5625 19.7443C52.3958 19.4792 52.1667 19.2746 51.875 19.1307C51.5833 18.9867 51.2519 18.9148 50.8807 18.9148C50.4981 18.9148 50.1629 18.9943 49.875 19.1534C49.5871 19.3087 49.3636 19.5303 49.2045 19.8182C49.0492 20.1061 48.9716 20.4489 48.9716 20.8466H46.9659C46.9659 20.108 47.1345 19.4659 47.4716 18.9205C47.8087 18.375 48.2727 17.9527 48.8636 17.6534C49.4583 17.3542 50.1402 17.2045 50.9091 17.2045C51.6894 17.2045 52.375 17.3504 52.9659 17.642C53.5568 17.9337 54.0152 18.3333 54.3409 18.8409C54.6705 19.3485 54.8352 19.928 54.8352 20.5795C54.8352 21.0152 54.7519 21.4432 54.5852 21.8636C54.4186 22.2841 54.125 22.75 53.7045 23.2614C53.2879 23.7727 52.7027 24.392 51.9489 25.1193L49.9432 27.1591V27.2386H55.0114V29H47.0341ZM61.2727 29.2216C60.3371 29.2216 59.5341 28.9848 58.8636 28.5114C58.197 28.0341 57.6837 27.3466 57.3239 26.4489C56.9678 25.5473 56.7898 24.4621 56.7898 23.1932C56.7936 21.9242 56.9735 20.8447 57.3295 19.9545C57.6894 19.0606 58.2027 18.3788 58.8693 17.9091C59.5398 17.4394 60.3409 17.2045 61.2727 17.2045C62.2045 17.2045 63.0057 17.4394 63.6761 17.9091C64.3466 18.3788 64.8598 19.0606 65.2159 19.9545C65.5758 20.8485 65.7557 21.928 65.7557 23.1932C65.7557 24.4659 65.5758 25.553 65.2159 26.4545C64.8598 27.3523 64.3466 28.0379 63.6761 28.5114C63.0095 28.9848 62.2083 29.2216 61.2727 29.2216ZM61.2727 27.4432C62 27.4432 62.5739 27.0852 62.9943 26.3693C63.4186 25.6496 63.6307 24.5909 63.6307 23.1932C63.6307 22.2689 63.5341 21.4924 63.3409 20.8636C63.1477 20.2348 62.875 19.7614 62.5227 19.4432C62.1705 19.1212 61.7538 18.9602 61.2727 18.9602C60.5492 18.9602 59.9773 19.3201 59.5568 20.0398C59.1364 20.7557 58.9242 21.8068 58.9205 23.1932C58.9167 24.1212 59.0095 24.9015 59.1989 25.5341C59.392 26.1667 59.6648 26.6439 60.017 26.9659C60.3693 27.2841 60.7879 27.4432 61.2727 27.4432ZM71.9446 29.2216C71.009 29.2216 70.206 28.9848 69.5355 28.5114C68.8688 28.0341 68.3556 27.3466 67.9957 26.4489C67.6397 25.5473 67.4616 24.4621 67.4616 23.1932C67.4654 21.9242 67.6454 20.8447 68.0014 19.9545C68.3613 19.0606 68.8745 18.3788 69.5412 17.9091C70.2116 17.4394 71.0128 17.2045 71.9446 17.2045C72.8764 17.2045 73.6776 17.4394 74.348 17.9091C75.0185 18.3788 75.5317 19.0606 75.8878 19.9545C76.2476 20.8485 76.4276 21.928 76.4276 23.1932C76.4276 24.4659 76.2476 25.553 75.8878 26.4545C75.5317 27.3523 75.0185 28.0379 74.348 28.5114C73.6813 28.9848 72.8802 29.2216 71.9446 29.2216ZM71.9446 27.4432C72.6719 27.4432 73.2457 27.0852 73.6662 26.3693C74.0904 25.6496 74.3026 24.5909 74.3026 23.1932C74.3026 22.2689 74.206 21.4924 74.0128 20.8636C73.8196 20.2348 73.5469 19.7614 73.1946 19.4432C72.8423 19.1212 72.4257 18.9602 71.9446 18.9602C71.2211 18.9602 70.6491 19.3201 70.2287 20.0398C69.8082 20.7557 69.5961 21.8068 69.5923 23.1932C69.5885 24.1212 69.6813 24.9015 69.8707 25.5341C70.0639 26.1667 70.3366 26.6439 70.6889 26.9659C71.0412 27.2841 71.4598 27.4432 71.9446 27.4432ZM82.3068 29V20.2727H84.2727V21.7557H84.375C84.5568 21.2557 84.858 20.8655 85.2784 20.5852C85.6989 20.3011 86.2008 20.1591 86.7841 20.1591C87.375 20.1591 87.8731 20.303 88.2784 20.5909C88.6875 20.875 88.9754 21.2633 89.142 21.7557H89.233C89.4261 21.2708 89.7519 20.8845 90.2102 20.5966C90.6723 20.3049 91.2197 20.1591 91.8523 20.1591C92.6553 20.1591 93.3106 20.4129 93.8182 20.9205C94.3258 21.428 94.5795 22.1686 94.5795 23.142V29H92.517V23.4602C92.517 22.9186 92.3731 22.5227 92.0852 22.2727C91.7973 22.0189 91.4451 21.892 91.0284 21.892C90.5322 21.892 90.1439 22.0473 89.8636 22.358C89.5871 22.6648 89.4489 23.0644 89.4489 23.5568V29H87.4318V23.375C87.4318 22.9242 87.2955 22.5644 87.0227 22.2955C86.7538 22.0265 86.4015 21.892 85.9659 21.892C85.6705 21.892 85.4015 21.9678 85.1591 22.1193C84.9167 22.267 84.7235 22.4773 84.5795 22.75C84.4356 23.0189 84.3636 23.3333 84.3636 23.6932V29H82.3068ZM98.723 17.3636V29H96.6662V17.3636H98.723Z" fill="#403F3D"/>
</svg>
